<svg width="62" height="62" viewBox="0 0 62 62" fill="none" xmlns="http://www.w3.org/2000/svg">
<circle cx="31" cy="31" r="31" fill="#D2EEEB"/>
<circle cx="31" cy="31" r="22" fill="white"/>
<path d="M31 9C36.8348 9 42.4305 11.3179 46.5563 15.4437C50.6821 19.5695 53 25.1652 53 31C53 36.8348 50.6821 42.4305 46.5563 46.5563C42.4305 50.6821 36.8348 53 31 53C25.1652 53 19.5695 50.6821 15.4437 46.5563C11.3179 42.4305 9 36.8348 9 31C9 25.1652 11.3179 19.5695 15.4437 15.4437C19.5695 11.3179 25.1652 9 31 9ZM28.2594 35.3403L23.3723 30.45C23.1971 30.2748 22.9891 30.1358 22.7602 30.041C22.5313 29.9462 22.2859 29.8974 22.0381 29.8974C21.7904 29.8974 21.545 29.9462 21.3161 30.041C21.0872 30.1358 20.8792 30.2748 20.704 30.45C20.3502 30.8038 20.1514 31.2837 20.1514 31.7841C20.1514 32.2845 20.3502 32.7644 20.704 33.1183L26.9269 39.3411C27.1016 39.5172 27.3094 39.657 27.5384 39.7524C27.7674 39.8478 28.0129 39.8969 28.261 39.8969C28.5091 39.8969 28.7546 39.8478 28.9836 39.7524C29.2126 39.657 29.4204 39.5172 29.5951 39.3411L42.4809 26.4523C42.6584 26.2778 42.7996 26.0699 42.8964 25.8406C42.9932 25.6112 43.0437 25.365 43.0448 25.1161C43.046 24.8672 42.9978 24.6205 42.9032 24.3903C42.8085 24.16 42.6692 23.9508 42.4933 23.7747C42.3174 23.5986 42.1084 23.459 41.8782 23.3641C41.6481 23.2692 41.4015 23.2208 41.1526 23.2216C40.9037 23.2225 40.6574 23.2726 40.4279 23.3691C40.1985 23.4657 39.9904 23.6067 39.8157 23.784L28.2594 35.3403Z" fill="#4FD1C5"/>
</svg>
