<svg width="62" height="62" viewBox="0 0 62 62" fill="none" xmlns="http://www.w3.org/2000/svg">
<circle cx="31" cy="31" r="31" fill="#D2EEEB"/>
<circle cx="31" cy="31" r="22" fill="white"/>
<path d="M31 9C43.1506 9 53 18.8494 53 31C53 43.1506 43.1506 53 31 53C18.8494 53 9 43.1506 9 31C9 18.8494 18.8494 9 31 9ZM31 37.6C30.4165 37.6 29.8569 37.8318 29.4444 38.2444C29.0318 38.6569 28.8 39.2165 28.8 39.8C28.8 40.3835 29.0318 40.9431 29.4444 41.3556C29.8569 41.7682 30.4165 42 31 42C31.5835 42 32.1431 41.7682 32.5556 41.3556C32.9682 40.9431 33.2 40.3835 33.2 39.8C33.2 39.2165 32.9682 38.6569 32.5556 38.2444C32.1431 37.8318 31.5835 37.6 31 37.6ZM31 17.8C30.4611 17.8001 29.9411 17.9979 29.5384 18.356C29.1357 18.714 28.8784 19.2074 28.8154 19.7426L28.8 20V33.2C28.8006 33.7607 29.0153 34.3001 29.4003 34.7078C29.7852 35.1156 30.3113 35.3609 30.8711 35.3938C31.4308 35.4266 31.982 35.2445 32.412 34.8846C32.842 34.5247 33.1184 34.0142 33.1846 33.4574L33.2 33.2V20C33.2 19.4165 32.9682 18.8569 32.5556 18.4444C32.1431 18.0318 31.5835 17.8 31 17.8Z" fill="#4FD1C5"/>
</svg>
