<svg width="19" height="19" viewBox="0 0 19 19" fill="none" xmlns="http://www.w3.org/2000/svg">
<path d="M9.50065 3.16659C12.9927 3.16659 15.834 6.00788 15.834 9.49992C15.834 12.992 12.9927 15.8333 9.50065 15.8333C6.00861 15.8333 3.16732 12.992 3.16732 9.49992C3.16732 6.00788 6.00861 3.16659 9.50065 3.16659ZM9.50065 1.58325C5.12828 1.58325 1.58398 5.12754 1.58398 9.49992C1.58398 13.8723 5.12828 17.4166 9.50065 17.4166C13.873 17.4166 17.4173 13.8723 17.4173 9.49992C17.4173 5.12754 13.873 1.58325 9.50065 1.58325ZM13.459 8.70825H10.2923V5.54159H8.70898V8.70825H5.54232V10.2916H8.70898V13.4583H10.2923V10.2916H13.459V8.70825Z" fill="white"/>
</svg>
