<svg width="12" height="7" viewBox="0 0 12 7" fill="none" xmlns="http://www.w3.org/2000/svg">
<path d="M0.250381 0.267678C0.410749 0.0962834 0.628225 0 0.854984 0C1.08174 0 1.29922 0.0962834 1.45959 0.267678L5.69266 4.7932L9.92574 0.267678C10.087 0.101141 10.303 0.00899029 10.5273 0.0110731C10.7515 0.0131564 10.966 0.109307 11.1245 0.278816C11.2831 0.448324 11.373 0.677629 11.375 0.917342C11.3769 1.15705 11.2907 1.388 11.1349 1.56042L6.29727 6.73232C6.1369 6.90372 5.91942 7 5.69266 7C5.4659 7 5.24843 6.90372 5.08806 6.73232L0.250381 1.56042C0.0900623 1.38898 0 1.15648 0 0.914052C0 0.671626 0.0900623 0.439125 0.250381 0.267678Z" fill="#7B809A"/>
</svg>
