<svg width="42" height="38" viewBox="0 0 42 38" fill="none" xmlns="http://www.w3.org/2000/svg">
<path d="M9.97846 23.0001C9.12186 22.1397 8.44421 21.1196 7.98433 19.9981C7.52445 18.8767 7.29137 17.6759 7.29844 16.4647C7.29532 15.2535 7.53486 14.0538 8.00303 12.9358C8.4712 11.8178 9.15862 10.8039 10.0251 9.95345C10.3962 9.62509 10.6962 9.22479 10.9065 8.77704C11.1168 8.3293 11.2331 7.84354 11.2482 7.34951C11.2633 6.85548 11.177 6.36358 10.9945 5.90392C10.8119 5.44426 10.5371 5.02651 10.1867 4.67626C9.83631 4.32602 9.4178 4.05063 8.95676 3.86698C8.49573 3.68332 8.00188 3.59525 7.50547 3.60817C7.00905 3.62109 6.5205 3.73473 6.06974 3.94211C5.61898 4.1495 5.2155 4.44628 4.88399 4.81428C1.77015 7.89522 0.0133822 12.081 7.61375e-05 16.4511C-0.01323 20.8211 1.71802 25.0175 4.81303 28.1171C5.14346 28.4846 5.54562 28.7813 5.995 28.989C6.44437 29.1968 6.93155 29.3112 7.42683 29.3255C7.92211 29.3397 8.41511 29.2534 8.87578 29.0718C9.33646 28.8902 9.75515 28.6172 10.1063 28.2693C10.4575 27.9214 10.7338 27.5059 10.9185 27.0483C11.1031 26.5906 11.1921 26.1004 11.1801 25.6074C11.1682 25.1143 11.0555 24.6289 10.8489 24.1807C10.6423 23.7324 10.3461 23.3308 9.97846 23.0001V23.0001Z" fill="#FFD353"/>
<path d="M10.0253 9.95318C11.7715 8.23261 14.1319 7.27131 16.5891 7.28001C19.0462 7.28871 21.3996 8.26669 23.1335 9.99959C23.4628 10.3709 23.8649 10.6714 24.3151 10.8823C24.7653 11.0933 25.2541 11.2104 25.7515 11.2264C26.2488 11.2425 26.7442 11.1571 27.2072 10.9755C27.6702 10.7939 28.091 10.52 28.4437 10.1706C28.7964 9.82123 29.0735 9.40373 29.2582 8.94379C29.4428 8.48384 29.5309 7.99118 29.5172 7.49608C29.5034 7.00098 29.3881 6.51391 29.1782 6.06482C28.9684 5.61573 28.6685 5.2141 28.2969 4.88462C26.7701 3.34534 24.9527 2.12144 22.9493 1.28322C20.9458 0.444989 18.7958 0.0089482 16.6225 0.000136285C14.4493 -0.00867563 12.2957 0.409915 10.2855 1.23187C8.27524 2.05382 6.44795 3.26294 4.90856 4.78979C4.53605 5.11647 4.23444 5.51536 4.02218 5.96207C3.80993 6.40877 3.69149 6.89389 3.67411 7.38773C3.65674 7.88157 3.74079 8.37375 3.92114 8.83414C4.10148 9.29452 4.37432 9.71344 4.72295 10.0653C5.07158 10.4171 5.48868 10.6944 5.94871 10.8802C6.40874 11.066 6.90203 11.1564 7.39839 11.1459C7.89475 11.1355 8.38374 11.0243 8.83543 10.8192C9.28712 10.6141 9.69202 10.3194 10.0253 9.95318V9.95318Z" fill="#6941C6"/>
<path d="M23.4866 23.2655C22.6225 24.1198 21.5976 24.796 20.4705 25.2554C19.3434 25.7149 18.1363 25.9485 16.9184 25.943C15.7007 25.9448 14.495 25.7048 13.3717 25.2371C12.2483 24.7693 11.2301 24.0833 10.3764 23.2191C10.0465 22.8496 9.64433 22.5511 9.19448 22.3418C8.74462 22.1325 8.25658 22.0167 7.76022 22.0017C7.26386 21.9866 6.76964 22.0726 6.30781 22.2542C5.84598 22.4359 5.42627 22.7095 5.07437 23.0582C4.72247 23.407 4.44579 23.8235 4.26127 24.2824C4.07675 24.7412 3.98827 25.2328 4.00125 25.7269C4.01423 26.221 4.1284 26.7072 4.33676 27.1559C4.54512 27.6045 4.8433 28.0061 5.21303 28.336C6.74251 29.8752 8.56213 31.0988 10.5676 31.9368C12.5731 32.7747 14.725 33.2104 16.9 33.2191C19.075 33.2277 21.2304 32.809 23.2425 31.987C25.2546 31.165 27.084 29.9559 28.6257 28.4289C28.9663 28.093 29.2372 27.6937 29.4227 27.2536C29.6083 26.8136 29.705 26.3415 29.7072 25.8643C29.7095 25.3871 29.6173 24.9141 29.4359 24.4723C29.2545 24.0306 28.9875 23.6287 28.65 23.2897C28.3126 22.9507 27.9114 22.6811 27.4693 22.4964C27.0272 22.3117 26.5528 22.2155 26.0734 22.2132C25.5939 22.211 25.1187 22.3027 24.6749 22.4833C24.231 22.6638 23.8273 22.9296 23.4866 23.2655Z" fill="#94ECE9"/>
<g filter="url(#filter0_d_1205_83)">
<line x1="30.0002" y1="18" x2="30.0002" y2="30" stroke="#1A1A1A" stroke-width="4" stroke-linecap="round"/>
<line x1="36.0223" y1="24.022" x2="24.022" y2="24.1548" stroke="#1A1A1A" stroke-width="4" stroke-linecap="round"/>
</g>
<defs>
<filter id="filter0_d_1205_83" x="19.022" y="16" width="22.0002" height="22" filterUnits="userSpaceOnUse" color-interpolation-filters="sRGB">
<feFlood flood-opacity="0" result="BackgroundImageFix"/>
<feColorMatrix in="SourceAlpha" type="matrix" values="0 0 0 0 0 0 0 0 0 0 0 0 0 0 0 0 0 0 127 0" result="hardAlpha"/>
<feOffset dy="3"/>
<feGaussianBlur stdDeviation="1.5"/>
<feComposite in2="hardAlpha" operator="out"/>
<feColorMatrix type="matrix" values="0 0 0 0 0 0 0 0 0 0 0 0 0 0 0 0 0 0 0.25 0"/>
<feBlend mode="normal" in2="BackgroundImageFix" result="effect1_dropShadow_1205_83"/>
<feBlend mode="normal" in="SourceGraphic" in2="effect1_dropShadow_1205_83" result="shape"/>
</filter>
</defs>
</svg>
