<svg width="17" height="16" viewBox="0 0 17 16" fill="none" xmlns="http://www.w3.org/2000/svg">
<path fill-rule="evenodd" clip-rule="evenodd" d="M8.55469 1.33325H4.55469C4.02425 1.33325 3.51555 1.54397 3.14047 1.91904C2.7654 2.29411 2.55469 2.80282 2.55469 3.33325V12.6666C2.55469 13.197 2.7654 13.7057 3.14047 14.0808C3.51555 14.4559 4.02425 14.6666 4.55469 14.6666H12.5547C13.0851 14.6666 13.5938 14.4559 13.9689 14.0808C14.344 13.7057 14.5547 13.197 14.5547 12.6666V7.33325H10.5547C10.0243 7.33325 9.51555 7.12254 9.14047 6.74747C8.7654 6.37239 8.55469 5.86368 8.55469 5.33325V1.33325ZM14.5547 5.99992V5.88525C14.5544 5.35509 14.3436 4.84674 13.9687 4.47192L11.4167 1.91859C11.0416 1.54373 10.533 1.33319 10.0027 1.33325H9.88802V5.33325C9.88802 5.51006 9.95826 5.67963 10.0833 5.80466C10.2083 5.92968 10.3779 5.99992 10.5547 5.99992H14.5547Z" fill="#4FD1C5"/>
</svg>
