<svg width="15" height="14" viewBox="0 0 15 14" fill="none" xmlns="http://www.w3.org/2000/svg">
<path d="M14.4704 5.11124C14.3744 5.25573 14.2154 5.33373 14.0539 5.33373C13.959 5.33373 13.8625 5.30623 13.777 5.24973L7.5547 1.10135L1.33244 5.24973C1.10145 5.40223 0.791964 5.34073 0.63897 5.11124C0.485476 4.88124 0.547474 4.57125 0.777465 4.41776L7.27721 0.0843727C7.4452 -0.0281243 7.6637 -0.0281243 7.83169 0.0843727L14.3314 4.41776C14.5619 4.57125 14.6239 4.88124 14.4704 5.11124ZM1.55493 5.50023V8.50015V11.0001V13C1.55493 13.55 2.00492 14 2.5549 14H6.05476V9.50012C6.05476 9.22513 6.27975 9.00013 6.55474 9.00013H8.55466C8.82965 9.00013 9.05464 9.22513 9.05464 9.50012V14H12.5545C13.1045 14 13.5545 13.55 13.5545 13V11.0001V8.50015V5.50023L7.5547 1.50033L1.55493 5.50023Z" fill="#4FD1C5"/>
</svg>
