<svg width="16" height="16" viewBox="0 0 16 16" fill="#4FD1C5" xmlns="http://www.w3.org/2000/svg">
<path d="M2.74805 7.33325V12.6666C2.74805 13.0202 2.87993 13.3593 3.11469 13.6094C3.34945 13.8594 3.66784 13.9999 3.99984 13.9999H11.5106C11.8426 13.9999 12.161 13.8594 12.3958 13.6094C12.6305 13.3593 12.7624 13.0202 12.7624 12.6666V7.33325" stroke="#4FD1C5" stroke-width="1.5" stroke-linecap="round" stroke-linejoin="round"/>
<path d="M7.75538 3.66659C7.75538 3.04775 7.52458 2.45425 7.11376 2.01667C6.70293 1.57908 6.14574 1.33325 5.56474 1.33325C5.14975 1.33325 4.75175 1.50885 4.4583 1.82141C4.16486 2.13397 4 2.55789 4 2.99992C4 3.44195 4.16486 3.86587 4.4583 4.17843C4.75175 4.49099 5.14975 4.66659 5.56474 4.66659H7.75538M7.75538 3.66659V4.66659M7.75538 3.66659C7.75538 3.04775 7.98618 2.45425 8.39701 2.01667C8.80783 1.57908 9.36503 1.33325 9.94602 1.33325C10.361 1.33325 10.759 1.50885 11.0525 1.82141C11.3459 2.13397 11.5108 2.55789 11.5108 2.99992C11.5108 3.21879 11.4703 3.43551 11.3917 3.63772C11.313 3.83993 11.1978 4.02367 11.0525 4.17843C10.9072 4.33319 10.7347 4.45596 10.5448 4.53972C10.355 4.62348 10.1515 4.66659 9.94602 4.66659H7.75538" stroke="#4FD1C5" stroke-width="1.5" stroke-linejoin="round"/>
<path d="M7.75612 7.33317V13.9998M2.12305 4.6665H13.3892V7.33317H2.12305V4.6665Z" stroke="#4FD1C5" stroke-width="1.5" stroke-linecap="round" stroke-linejoin="round"/>
</svg>
