<svg width="80" height="80" viewBox="0 0 80 80" fill="none" xmlns="http://www.w3.org/2000/svg">
<path d="M16.666 6.66675H53.3327C55.9848 6.66675 58.5284 7.72032 60.4038 9.59568C62.2791 11.471 63.3327 14.0146 63.3327 16.6667V63.3334C63.3327 64.2175 62.9815 65.0653 62.3564 65.6904C61.7313 66.3156 60.8834 66.6667 59.9993 66.6667H49.9993" stroke="#344767" stroke-width="6.66667" stroke-linecap="round" stroke-linejoin="round"/>
<path d="M39.9993 40.0001V46.6667M16.666 6.66675L41.9593 11.7267C44.226 12.1798 46.2657 13.4041 47.7315 15.1914C49.1973 16.9787 49.9987 19.2186 49.9993 21.5301V69.2667C49.9991 69.7597 49.8894 70.2465 49.6783 70.692C49.4673 71.1375 49.16 71.5306 48.7787 71.8431C48.3974 72.1555 47.9515 72.3795 47.4732 72.4989C46.9949 72.6182 46.4961 72.63 46.0127 72.5334L22.026 67.7401C20.5142 67.4379 19.1538 66.621 18.1765 65.4286C17.1992 64.2362 16.6654 62.7418 16.666 61.2001V6.66675Z" stroke="#344767" stroke-width="6.66667" stroke-linecap="round" stroke-linejoin="round"/>
</svg>
