<svg width="50" height="50" viewBox="0 0 50 50" fill="none" xmlns="http://www.w3.org/2000/svg">
<path fill-rule="evenodd" clip-rule="evenodd" d="M24.9994 4.16675C13.4931 4.16675 4.16602 13.4938 4.16602 25.0001C4.16602 36.5063 13.4931 45.8334 24.9994 45.8334C36.5056 45.8334 45.8327 36.5063 45.8327 25.0001C45.8327 13.4938 36.5056 4.16675 24.9994 4.16675ZM17.7077 19.7918C17.7077 18.8342 17.8963 17.886 18.2627 17.0014C18.6292 16.1167 19.1663 15.3129 19.8434 14.6358C20.5205 13.9587 21.3243 13.4216 22.209 13.0551C23.0936 12.6887 24.0418 12.5001 24.9994 12.5001C25.9569 12.5001 26.9051 12.6887 27.7898 13.0551C28.6744 13.4216 29.4782 13.9587 30.1553 14.6358C30.8324 15.3129 31.3695 16.1167 31.736 17.0014C32.1024 17.886 32.291 18.8342 32.291 19.7918C32.291 21.7256 31.5228 23.5803 30.1553 24.9477C28.7879 26.3152 26.9332 27.0834 24.9994 27.0834C23.0655 27.0834 21.2108 26.3152 19.8434 24.9477C18.4759 23.5803 17.7077 21.7256 17.7077 19.7918ZM38.0369 35.3834C36.4768 37.3446 34.4942 38.9282 32.2367 40.0161C29.9793 41.1041 27.5053 41.6683 24.9994 41.6668C22.4934 41.6683 20.0195 41.1041 17.762 40.0161C15.5045 38.9282 13.5219 37.3446 11.9619 35.3834C15.3389 32.9605 19.9473 31.2501 24.9994 31.2501C30.0514 31.2501 34.6598 32.9605 38.0369 35.3834Z" fill="#7B809A"/>
</svg>
