<svg width="19" height="17" viewBox="0 0 19 17" fill="none" xmlns="http://www.w3.org/2000/svg">
<path fill-rule="evenodd" clip-rule="evenodd" d="M6.13964 3.625C6.13964 2.7962 6.47447 2.00134 7.07048 1.41529C7.66649 0.82924 8.47485 0.5 9.31773 0.5C10.1606 0.5 10.969 0.82924 11.565 1.41529C12.161 2.00134 12.4958 2.7962 12.4958 3.625C12.4958 4.4538 12.161 5.24866 11.565 5.83471C10.969 6.42076 10.1606 6.75 9.31773 6.75C8.47485 6.75 7.66649 6.42076 7.07048 5.83471C6.47447 5.24866 6.13964 4.4538 6.13964 3.625ZM12.4958 6.125C12.4958 5.46196 12.7637 4.82607 13.2405 4.35723C13.7173 3.88839 14.364 3.625 15.0383 3.625C15.7126 3.625 16.3593 3.88839 16.8361 4.35723C17.3129 4.82607 17.5808 5.46196 17.5808 6.125C17.5808 6.78804 17.3129 7.42393 16.8361 7.89277C16.3593 8.36161 15.7126 8.625 15.0383 8.625C14.364 8.625 13.7173 8.36161 13.2405 7.89277C12.7637 7.42393 12.4958 6.78804 12.4958 6.125ZM1.05469 6.125C1.05469 5.46196 1.32255 4.82607 1.79936 4.35723C2.27617 3.88839 2.92286 3.625 3.59716 3.625C4.27147 3.625 4.91816 3.88839 5.39497 4.35723C5.87177 4.82607 6.13964 5.46196 6.13964 6.125C6.13964 6.78804 5.87177 7.42393 5.39497 7.89277C4.91816 8.36161 4.27147 8.625 3.59716 8.625C2.92286 8.625 2.27617 8.36161 1.79936 7.89277C1.32255 7.42393 1.05469 6.78804 1.05469 6.125ZM4.4955 10.5983C5.01262 9.8018 5.72549 9.14621 6.5683 8.69208C7.4111 8.23796 8.35668 7.99994 9.31773 8C10.1227 7.99928 10.9187 8.16573 11.6538 8.48847C12.3888 8.8112 13.0462 9.28295 13.5829 9.87281C14.1197 10.4627 14.5237 11.1574 14.7685 11.9114C15.0133 12.6654 15.0934 13.4618 15.0036 14.2483C14.9926 14.3461 14.9583 14.4398 14.9035 14.5221C14.8487 14.6043 14.775 14.6727 14.6883 14.7217C13.0539 15.6436 11.202 16.1275 9.31773 16.125C7.43349 16.1275 5.58158 15.6436 3.94718 14.7217C3.86047 14.6727 3.78673 14.6043 3.73195 14.5221C3.67717 14.4398 3.6429 14.3461 3.63191 14.2483C3.49047 12.9706 3.79499 11.6835 4.4955 10.5983Z" fill="white"/>
<path d="M3.45466 9.87842L3.42415 9.92425C2.60994 11.1841 2.23207 12.6692 2.34699 14.1576C1.8378 14.0817 1.33699 13.9589 0.851166 13.7909L0.753705 13.7576C0.666574 13.7275 0.590257 13.6731 0.534108 13.601C0.477959 13.5289 0.444416 13.4423 0.43759 13.3518L0.429115 13.2509C0.422335 13.167 0.418945 13.0834 0.418945 13.0001C0.418997 12.1956 0.734605 11.422 1.30007 10.8406C1.86553 10.2591 2.63728 9.91446 3.45466 9.87842ZM16.2891 14.1576C16.405 12.6504 16.0156 11.1474 15.1806 9.87842C15.607 9.89721 16.0252 10.0003 16.4102 10.1815C16.7952 10.3627 17.1392 10.6182 17.4216 10.933C17.7039 11.2478 17.9189 11.6152 18.0537 12.0135C18.1885 12.4117 18.2403 12.8326 18.2061 13.2509L18.1976 13.3518C18.1906 13.4422 18.157 13.5286 18.1009 13.6005C18.0448 13.6724 17.9685 13.7267 17.8815 13.7568L17.7841 13.7901C17.3032 13.9579 16.8049 14.0804 16.2891 14.1576Z" fill="white"/>
</svg>
