<svg width="16" height="17" viewBox="0 0 16 17" fill="none" xmlns="http://www.w3.org/2000/svg">
<path d="M10.3333 9.44173H9.80667L9.62 9.26173C10.2959 8.47774 10.6674 7.47686 10.6667 6.44173C10.6667 5.58468 10.4125 4.74687 9.93637 4.03426C9.46022 3.32165 8.78344 2.76623 7.99163 2.43825C7.19982 2.11027 6.32853 2.02446 5.48794 2.19166C4.64736 2.35886 3.87523 2.77157 3.26921 3.3776C2.66318 3.98363 2.25047 4.75575 2.08327 5.59634C1.91606 6.43692 2.00188 7.30821 2.32986 8.10002C2.65784 8.89184 3.21325 9.56861 3.92586 10.0448C4.63848 10.5209 5.47628 10.7751 6.33334 10.7751C7.40667 10.7751 8.39334 10.3817 9.15334 9.7284L9.33334 9.91506V10.4417L12.6667 13.7684L13.66 12.7751L10.3333 9.44173ZM6.33334 9.44173C4.67334 9.44173 3.33334 8.10173 3.33334 6.44173C3.33334 4.78173 4.67334 3.44173 6.33334 3.44173C7.99334 3.44173 9.33334 4.78173 9.33334 6.44173C9.33334 8.10173 7.99334 9.44173 6.33334 9.44173Z" fill="#7B809A"/>
</svg>
