<svg width="17" height="16" viewBox="0 0 17 16" fill="none" xmlns="http://www.w3.org/2000/svg">
<path d="M14.5385 1.6248L7.25728 8.90605M1.82353 6.24792L14.3235 1.51698C14.3686 1.49974 14.4178 1.49592 14.465 1.50598C14.5122 1.51605 14.5555 1.53957 14.5896 1.57371C14.6238 1.60785 14.6473 1.65114 14.6573 1.69836C14.6674 1.74558 14.6636 1.7947 14.6463 1.8398L9.91541 14.3398C9.89659 14.3873 9.86369 14.4278 9.82113 14.456C9.77857 14.4843 9.72839 14.4988 9.67734 14.4976C9.62629 14.4965 9.57682 14.4797 9.53558 14.4496C9.49434 14.4195 9.46331 14.3774 9.44666 14.3292L7.34041 9.13886C7.31585 9.06531 7.27453 8.99847 7.21969 8.94364C7.16486 8.88881 7.09803 8.84748 7.02447 8.82292L1.83416 6.71855C1.78526 6.70228 1.74259 6.6713 1.71198 6.62985C1.68137 6.58839 1.66431 6.53849 1.66315 6.48698C1.66199 6.43546 1.67677 6.38484 1.70548 6.34205C1.73419 6.29926 1.77542 6.26638 1.82353 6.24792Z" stroke="#F8F9FA" stroke-linecap="round" stroke-linejoin="round"/>
</svg>
