<svg width="16" height="16" viewBox="0 0 16 16" fill="none" xmlns="http://www.w3.org/2000/svg">
<path d="M2 12.6667C4.22222 11.3333 5.33333 10 5.33333 8.66667C5.33333 6.66667 4.66667 6.66667 4 6.66667C3.33333 6.66667 2.64533 7.39 2.66667 8.66667C2.68933 10.032 3.772 10.5847 4.33333 11.3333C5.33333 12.6667 6 13 6.66667 12C7.11111 11.3333 7.44444 10.7778 7.66667 10.3333C8.33333 11.8889 9.22222 12.6667 10.3333 12.6667H12M12 12.6667L10.6667 11.3333V3.33333C10.6667 2.586 11.2527 2 12 2C12.7473 2 13.3333 2.586 13.3333 3.33333V11.3333L12 12.6667ZM10.6667 4.66667H13.3333" stroke="#4FD1C5" stroke-width="1.33333" stroke-linecap="round" stroke-linejoin="round"/>
</svg>
