<svg width="22" height="22" viewBox="0 0 22 22" fill="none" xmlns="http://www.w3.org/2000/svg">
<path d="M20.342 0H1.84154C1.26135 0 0.791016 0.484425 0.791016 1.08199V10.1551C0.791016 10.7527 1.26135 11.2371 1.84154 11.2371H5.6373V20.1368C5.63696 20.4236 5.74736 20.6988 5.94416 20.9018C6.14097 21.1047 6.40804 21.2188 6.68654 21.2188H15.4958C16.0759 21.2188 16.5463 20.7343 16.5463 20.1368V11.2411H20.342C20.6205 11.2411 20.8876 11.1271 21.0844 10.9241C21.2812 10.7211 21.3916 10.4459 21.3913 10.1591V1.08199C21.3916 0.795154 21.2812 0.519941 21.0844 0.316989C20.8876 0.114038 20.6205 0 20.342 0ZM2.0087 1.25548H10.4823V9.98296H2.0087V1.25548ZM15.3286 19.9646H6.85498V11.2411H15.3286V19.9646ZM20.1736 9.98296H11.7V1.25548H20.1736V9.98296Z" fill="#2D3748"/>
<path d="M7.76621 7.06409C8.00617 7.29603 8.38157 7.2899 8.61426 7.05023C8.84696 6.81056 8.85292 6.42392 8.62772 6.17677L6.68226 4.17303C6.44371 3.92963 6.0593 3.92963 5.82075 4.17303L3.87015 6.17677C3.70801 6.3335 3.64161 6.56873 3.69688 6.79056C3.75216 7.01239 3.92034 7.18561 4.13572 7.24254C4.3511 7.29948 4.57949 7.23108 4.73165 7.06409L6.24636 5.504L7.76621 7.06409Z" fill="#2D3748"/>
<path d="M14.4231 7.06409L15.9378 5.504L17.4525 7.06409C17.6924 7.29603 18.0678 7.2899 18.3005 7.05023C18.5332 6.81056 18.5392 6.42392 18.314 6.17677L16.3685 4.17303C16.13 3.92963 15.7456 3.92963 15.507 4.17303L13.5615 6.17677C13.3363 6.42392 13.3423 6.81056 13.575 7.05023C13.8077 7.2899 14.1831 7.29603 14.4231 7.06409Z" fill="#2D3748"/>
<path d="M9.57475 14.1545C9.33445 13.9229 8.95905 13.9296 8.7267 14.1697C8.49434 14.4097 8.48896 14.7964 8.71453 15.0432L10.66 17.0456C10.7741 17.1635 10.9291 17.2298 11.0907 17.2298C11.2524 17.2298 11.4074 17.1635 11.5215 17.0456L13.467 15.0432C13.6211 14.8847 13.6814 14.6535 13.6252 14.4368C13.569 14.2201 13.4048 14.0507 13.1944 13.9925C12.9841 13.9343 12.7596 13.996 12.6054 14.1545L11.0907 15.7159L9.57475 14.1545Z" fill="#2D3748"/>
</svg>
