<svg width="10" height="10" viewBox="0 0 80 80" fill="none" xmlns="http://www.w3.org/2000/svg">
<path d="M69.9997 16.6666L9.99972 16.6666C9.39224 16.6685 8.7968 16.836 8.27746 17.1512C7.75813 17.4663 7.33458 17.9171 7.0524 18.4551C6.77022 18.993 6.6401 19.5978 6.67604 20.2042C6.71198 20.8106 6.91263 21.3957 7.25638 21.8966L37.2564 65.2299C38.4997 67.0266 41.493 67.0266 42.7397 65.2299L72.7397 21.8966C73.087 21.3968 73.2906 20.8113 73.3285 20.2039C73.3664 19.5965 73.2371 18.9903 72.9547 18.4512C72.6722 17.9121 72.2475 17.4607 71.7265 17.1461C71.2055 16.8314 70.6083 16.6656 69.9997 16.6666Z" fill="#7B809A"/>
</svg>
