<svg width="12" height="7" viewBox="0 0 12 7" fill="none" xmlns="http://www.w3.org/2000/svg">
<path d="M11.1246 6.73232C10.9643 6.90372 10.7468 7 10.52 7C10.2933 7 10.0758 6.90372 9.91541 6.73232L5.68234 2.2068L1.44926 6.73232C1.28797 6.89886 1.07196 6.99101 0.847734 6.98893C0.623513 6.98684 0.409025 6.89069 0.25047 6.72118C0.0919151 6.55168 0.00197983 6.32237 3.14713e-05 6.08266C-0.00191689 5.84295 0.0842791 5.612 0.240054 5.43958L5.07773 0.267679C5.2381 0.0962842 5.45558 0 5.68234 0C5.9091 0 6.12657 0.0962842 6.28694 0.267679L11.1246 5.43958C11.2849 5.61102 11.375 5.84352 11.375 6.08595C11.375 6.32837 11.2849 6.56087 11.1246 6.73232Z" fill="#7B809A"/>
</svg>
