<svg width="26" height="26" viewBox="0 0 26 26" fill="none" xmlns="http://www.w3.org/2000/svg">
<path d="M5.22412 5.57577H20.8491C21.0316 5.57568 21.214 5.58726 21.395 5.61043C21.3336 5.17966 21.1857 4.76577 20.96 4.39373C20.7344 4.02169 20.4357 3.69919 20.0821 3.44569C19.7284 3.19219 19.3271 3.01293 18.9023 2.91872C18.4775 2.82452 18.038 2.81731 17.6103 2.89754L4.76025 5.09139H4.7456C3.939 5.24564 3.22171 5.702 2.74023 6.36727C3.46562 5.85132 4.33395 5.57462 5.22412 5.57577Z" fill="white"/>
<path d="M20.8486 6.75H5.22363C4.39511 6.7509 3.60078 7.08044 3.01492 7.66629C2.42907 8.25215 2.09954 9.04648 2.09863 9.875V19.25C2.09954 20.0785 2.42907 20.8729 3.01492 21.4587C3.60078 22.0446 4.39511 22.3741 5.22363 22.375H20.8486C21.6772 22.3741 22.4715 22.0446 23.0573 21.4587C23.6432 20.8729 23.9727 20.0785 23.9736 19.25V9.875C23.9727 9.04648 23.6432 8.25215 23.0573 7.66629C22.4715 7.08044 21.6772 6.7509 20.8486 6.75ZM18.5293 16.125C18.2203 16.125 17.9182 16.0334 17.6612 15.8617C17.4043 15.69 17.204 15.446 17.0857 15.1604C16.9675 14.8749 16.9365 14.5608 16.9968 14.2577C17.0571 13.9546 17.2059 13.6762 17.4244 13.4576C17.643 13.2391 17.9214 13.0903 18.2245 13.03C18.5276 12.9697 18.8417 13.0007 19.1272 13.1189C19.4127 13.2372 19.6568 13.4375 19.8285 13.6944C20.0002 13.9514 20.0918 14.2535 20.0918 14.5625C20.0918 14.9769 19.9272 15.3743 19.6341 15.6674C19.3411 15.9604 18.9437 16.125 18.5293 16.125Z" fill="white"/>
<path d="M2.12305 13.1682V8.30981C2.12305 7.25171 2.70898 5.47778 4.74268 5.09351C6.46875 4.76978 8.17773 4.76978 8.17773 4.76978C8.17773 4.76978 9.30078 5.55103 8.37305 5.55103C7.44531 5.55103 7.46973 6.74731 8.37305 6.74731C9.27637 6.74731 8.37305 7.89477 8.37305 7.89477L4.73535 12.0208L2.12305 13.1682Z" fill="white"/>
</svg>
