<svg width="17" height="17" viewBox="0 0 17 17" fill="none" xmlns="http://www.w3.org/2000/svg">
<path d="M13.2113 3.16659H11.8779V2.49992C11.8779 2.32311 11.8077 2.15354 11.6827 2.02851C11.5576 1.90349 11.3881 1.83325 11.2113 1.83325C11.0345 1.83325 10.8649 1.90349 10.7399 2.02851C10.6148 2.15354 10.5446 2.32311 10.5446 2.49992V3.16659H6.5446V2.49992C6.5446 2.32311 6.47436 2.15354 6.34933 2.02851C6.22431 1.90349 6.05474 1.83325 5.87793 1.83325C5.70112 1.83325 5.53155 1.90349 5.40653 2.02851C5.2815 2.15354 5.21126 2.32311 5.21126 2.49992V3.16659H3.87793C3.3475 3.16659 2.83879 3.3773 2.46372 3.75237C2.08864 4.12744 1.87793 4.63615 1.87793 5.16659V13.1666C1.87793 13.697 2.08864 14.2057 2.46372 14.5808C2.83879 14.9559 3.3475 15.1666 3.87793 15.1666H13.2113C13.7417 15.1666 14.2504 14.9559 14.6255 14.5808C15.0006 14.2057 15.2113 13.697 15.2113 13.1666V5.16659C15.2113 4.63615 15.0006 4.12744 14.6255 3.75237C14.2504 3.3773 13.7417 3.16659 13.2113 3.16659ZM13.8779 13.1666C13.8779 13.3434 13.8077 13.513 13.6827 13.638C13.5576 13.763 13.3881 13.8333 13.2113 13.8333H3.87793C3.70112 13.8333 3.53155 13.763 3.40653 13.638C3.2815 13.513 3.21126 13.3434 3.21126 13.1666V8.49992H13.8779V13.1666ZM13.8779 7.16659H3.21126V5.16659C3.21126 4.98977 3.2815 4.82021 3.40653 4.69518C3.53155 4.57016 3.70112 4.49992 3.87793 4.49992H5.21126V5.16659C5.21126 5.3434 5.2815 5.51297 5.40653 5.63799C5.53155 5.76301 5.70112 5.83325 5.87793 5.83325C6.05474 5.83325 6.22431 5.76301 6.34933 5.63799C6.47436 5.51297 6.5446 5.3434 6.5446 5.16659V4.49992H10.5446V5.16659C10.5446 5.3434 10.6148 5.51297 10.7399 5.63799C10.8649 5.76301 11.0345 5.83325 11.2113 5.83325C11.3881 5.83325 11.5576 5.76301 11.6827 5.63799C11.8077 5.51297 11.8779 5.3434 11.8779 5.16659V4.49992H13.2113C13.3881 4.49992 13.5576 4.57016 13.6827 4.69518C13.8077 4.82021 13.8779 4.98977 13.8779 5.16659V7.16659Z" fill="#7B809A"/>
</svg>
