<svg width="19" height="19" viewBox="0 0 19 19" fill="none" xmlns="http://www.w3.org/2000/svg">
<g clip-path="url(#clip0_456_5010)">
<path d="M9.12898 9.5H8.5321C8.53196 9.57885 8.54728 9.65695 8.57718 9.72984C8.60709 9.80273 8.65099 9.86898 8.70639 9.9248L9.12898 9.5ZM9.12898 17.3C7.07105 17.3 5.0974 16.4782 3.64223 15.0154C2.18705 13.5526 1.36954 11.5687 1.36954 9.5H0.175781C0.175781 11.8869 1.11906 14.1761 2.79811 15.864C4.47716 17.5518 6.75444 18.5 9.12898 18.5V17.3ZM16.8884 9.5C16.8884 10.5243 16.6877 11.5386 16.2978 12.4849C15.9078 13.4313 15.3363 14.2911 14.6157 15.0154C13.8952 15.7397 13.0398 16.3143 12.0984 16.7063C11.157 17.0982 10.148 17.3 9.12898 17.3V18.5C11.5035 18.5 13.7808 17.5518 15.4598 15.864C17.1389 14.1761 18.0822 11.8869 18.0822 9.5H16.8884ZM9.12898 1.7C10.148 1.7 11.157 1.90175 12.0984 2.29374C13.0398 2.68573 13.8952 3.26027 14.6157 3.98457C15.3363 4.70886 15.9078 5.56873 16.2978 6.51507C16.6877 7.46141 16.8884 8.47569 16.8884 9.5H18.0822C18.0822 7.11305 17.1389 4.82387 15.4598 3.13604C13.7808 1.44821 11.5035 0.5 9.12898 0.5V1.7ZM9.12898 0.5C6.75444 0.5 4.47716 1.44821 2.79811 3.13604C1.11906 4.82387 0.175781 7.11305 0.175781 9.5H1.36954C1.36954 7.43131 2.18705 5.44735 3.64223 3.98457C5.0974 2.52178 7.07105 1.7 9.12898 1.7V0.5ZM8.5321 4.1V9.5H9.72586V4.1H8.5321ZM8.70639 9.9248L12.2877 13.5248L13.1328 12.6752L9.55157 9.0752L8.70639 9.9248Z" fill="#344767"/>
</g>
<defs>
<clipPath id="clip0_456_5010">
<rect width="17.9064" height="18" fill="white" transform="translate(0.175781 0.5)"/>
</clipPath>
</defs>
</svg>
