<svg width="21" height="22" viewBox="0 0 21 22" fill="none" xmlns="http://www.w3.org/2000/svg">
<path d="M10.479 2.79102H4.74707C4.31273 2.79102 3.89617 2.97506 3.58905 3.30266C3.28192 3.63027 3.10938 4.07459 3.10938 4.53789V16.7661C3.10938 17.2294 3.28192 17.6737 3.58905 18.0013C3.89617 18.3289 4.31273 18.5129 4.74707 18.5129H16.211C16.6453 18.5129 17.0619 18.3289 17.369 18.0013C17.6761 17.6737 17.8487 17.2294 17.8487 16.7661V10.652" stroke="#4FD1C5" stroke-width="1.33333" stroke-linecap="round" stroke-linejoin="round"/>
<path d="M15.699 2.46358C16.0248 2.11611 16.4666 1.9209 16.9273 1.9209C17.388 1.9209 17.8298 2.11611 18.1556 2.46358C18.4813 2.81106 18.6644 3.28234 18.6644 3.77374C18.6644 4.26515 18.4813 4.73643 18.1556 5.0839L10.7753 12.9571C10.5809 13.1643 10.3407 13.316 10.0768 13.3982L7.72426 14.1319C7.6538 14.1538 7.57911 14.1551 7.50801 14.1357C7.43691 14.1162 7.37201 14.0768 7.32011 14.0214C7.26821 13.9661 7.23122 13.8968 7.213 13.821C7.19479 13.7452 7.19602 13.6655 7.21657 13.5903L7.90441 11.0809C7.98181 10.7997 8.1243 10.5438 8.31874 10.3368L15.699 2.46358Z" stroke="#4FD1C5" stroke-width="2" stroke-linecap="round" stroke-linejoin="round"/>
</svg>
