<svg width="80" height="80" viewBox="0 0 80 80" fill="none" xmlns="http://www.w3.org/2000/svg">
<path d="M40.0007 56.6667C41.7688 56.6667 43.4645 55.9643 44.7147 54.7141C45.9649 53.4638 46.6673 51.7681 46.6673 50C46.6673 48.2319 45.9649 46.5362 44.7147 45.286C43.4645 44.0358 41.7688 43.3334 40.0007 43.3334C38.2325 43.3334 36.5368 44.0358 35.2866 45.286C34.0364 46.5362 33.334 48.2319 33.334 50C33.334 51.7681 34.0364 53.4638 35.2866 54.7141C36.5368 55.9643 38.2325 56.6667 40.0007 56.6667ZM60.0006 26.6667C61.7688 26.6667 63.4645 27.3691 64.7147 28.6193C65.9649 29.8696 66.6673 31.5653 66.6673 33.3334V66.6667C66.6673 68.4348 65.9649 70.1305 64.7147 71.3807C63.4645 72.631 61.7688 73.3334 60.0006 73.3334H20.0007C18.2325 73.3334 16.5368 72.631 15.2866 71.3807C14.0364 70.1305 13.334 68.4348 13.334 66.6667V33.3334C13.334 31.5653 14.0364 29.8696 15.2866 28.6193C16.5368 27.3691 18.2325 26.6667 20.0007 26.6667H23.334V20C23.334 15.5798 25.0899 11.3405 28.2155 8.21493C31.3411 5.08932 35.5804 3.33337 40.0007 3.33337C42.1893 3.33337 44.3566 3.76447 46.3787 4.60205C48.4008 5.43963 50.2381 6.66728 51.7858 8.21493C53.3334 9.76257 54.5611 11.5999 55.3986 13.622C56.2362 15.6441 56.6673 17.8113 56.6673 20V26.6667H60.0006ZM40.0007 10C37.3485 10 34.8049 11.0536 32.9296 12.929C31.0542 14.8043 30.0007 17.3479 30.0007 20V26.6667H50.0007V20C50.0007 17.3479 48.9471 14.8043 47.0717 12.929C45.1964 11.0536 42.6528 10 40.0007 10Z" fill="white"/>
</svg>
