<svg width="20" height="15" viewBox="0 0 20 15" fill="none" xmlns="http://www.w3.org/2000/svg">
<g clip-path="url(#clip0_495_7176)">
<path d="M3.80742 3.75C3.80742 2.75544 4.20591 1.80161 4.91523 1.09835C5.62455 0.395088 6.58659 0 7.58971 0C8.59284 0 9.55488 0.395088 10.2642 1.09835C10.9735 1.80161 11.372 2.75544 11.372 3.75C11.372 4.74456 10.9735 5.69839 10.2642 6.40165C9.55488 7.10491 8.59284 7.5 7.58971 7.5C6.58659 7.5 5.62455 7.10491 4.91523 6.40165C4.20591 5.69839 3.80742 4.74456 3.80742 3.75ZM0.970703 14.1299C0.970703 11.2441 3.32873 8.90625 6.23932 8.90625H8.94011C11.8507 8.90625 14.2087 11.2441 14.2087 14.1299C14.2087 14.6104 13.8157 15 13.3311 15H1.84831C1.36371 15 0.970703 14.6104 0.970703 14.1299ZM15.8635 9.14062V7.26562H13.9723C13.5793 7.26562 13.2631 6.95215 13.2631 6.5625C13.2631 6.17285 13.5793 5.85938 13.9723 5.85938H15.8635V3.98438C15.8635 3.59473 16.1796 3.28125 16.5727 3.28125C16.9657 3.28125 17.2818 3.59473 17.2818 3.98438V5.85938H19.173C19.566 5.85938 19.8822 6.17285 19.8822 6.5625C19.8822 6.95215 19.566 7.26562 19.173 7.26562H17.2818V9.14062C17.2818 9.53027 16.9657 9.84375 16.5727 9.84375C16.1796 9.84375 15.8635 9.53027 15.8635 9.14062Z" fill="white"/>
</g>
<defs>
<clipPath id="clip0_495_7176">
<rect width="18.9115" height="15" fill="white" transform="translate(0.970703)"/>
</clipPath>
</defs>
</svg>
