<svg width="68" height="68" viewBox="0 0 68 68" fill="none" xmlns="http://www.w3.org/2000/svg">
<path d="M67.3337 34.0001C67.3337 52.4101 52.4103 67.3334 34.0003 67.3334C15.5903 67.3334 0.666992 52.4101 0.666992 34.0001C0.666992 15.5901 15.5903 0.666748 34.0003 0.666748V7.33341C27.6154 7.33414 21.4427 9.62575 16.6042 13.7917C11.7656 17.9577 8.58238 23.7214 7.63309 30.0353C6.68379 36.3493 8.03144 42.7942 11.4311 48.1988C14.8307 53.6033 20.0567 57.6087 26.1591 59.4869C32.2615 61.3651 38.8352 60.9914 44.6855 58.4337C50.5357 55.8761 55.2741 51.3043 58.0393 45.5493C60.8046 39.7942 61.4132 33.2381 59.7545 27.0724C58.0957 20.9067 54.2798 15.5409 49.0003 11.9501V20.6667H42.3337V0.666748H62.3337V7.33341H54.0003C58.1421 10.4365 61.5036 14.4623 63.8181 19.0912C66.1326 23.7201 67.3362 28.8248 67.3337 34.0001Z" fill="#7B809A"/>
</svg>
